<?xml version="1.0" encoding="UTF-8" standalone="no"?>
<!-- Created with Inkscape (http://www.inkscape.org/) -->

<svg
   version="1.0"
   width="356.10043pt"
   height="103.35264pt"
   id="svg2"
   sodipodi:version="0.32"
   inkscape:version="1.2.1 (9c6d41e410, 2022-07-14)"
   sodipodi:docname="pyfuck.svg"
   xmlns:inkscape="http://www.inkscape.org/namespaces/inkscape"
   xmlns:sodipodi="http://sodipodi.sourceforge.net/DTD/sodipodi-0.dtd"
   xmlns:xlink="http://www.w3.org/1999/xlink"
   xmlns="http://www.w3.org/2000/svg"
   xmlns:svg="http://www.w3.org/2000/svg"
   xmlns:rdf="http://www.w3.org/1999/02/22-rdf-syntax-ns#"
   xmlns:cc="http://creativecommons.org/ns#"
   xmlns:dc="http://purl.org/dc/elements/1.1/">
  <metadata
     id="metadata2193">
    <rdf:RDF>
      <cc:Work
         rdf:about="">
        <dc:format>image/svg+xml</dc:format>
        <dc:type
           rdf:resource="http://purl.org/dc/dcmitype/StillImage" />
      </cc:Work>
    </rdf:RDF>
  </metadata>
  <sodipodi:namedview
     inkscape:window-height="1001"
     inkscape:window-width="1920"
     inkscape:pageshadow="2"
     inkscape:pageopacity="0.0"
     borderopacity="1.0"
     bordercolor="#666666"
     pagecolor="#ffffff"
     id="base"
     inkscape:zoom="2.8680178"
     inkscape:cx="218.44355"
     inkscape:cy="115.93373"
     inkscape:window-x="-9"
     inkscape:window-y="-9"
     inkscape:current-layer="svg2"
     inkscape:showpageshadow="0"
     inkscape:pagecheckerboard="0"
     inkscape:deskcolor="#d1d1d1"
     inkscape:document-units="pt"
     showgrid="false"
     inkscape:window-maximized="1" />
  <defs
     id="defs4">
    <linearGradient
       id="linearGradient2795">
      <stop
         style="stop-color:#b8b8b8;stop-opacity:0.49803922"
         offset="0"
         id="stop2797" />
      <stop
         style="stop-color:#7f7f7f;stop-opacity:0"
         offset="1"
         id="stop2799" />
    </linearGradient>
    <linearGradient
       id="linearGradient2787">
      <stop
         style="stop-color:#7f7f7f;stop-opacity:0.5"
         offset="0"
         id="stop2789" />
      <stop
         style="stop-color:#7f7f7f;stop-opacity:0"
         offset="1"
         id="stop2791" />
    </linearGradient>
    <linearGradient
       id="linearGradient3676">
      <stop
         style="stop-color:#b2b2b2;stop-opacity:0.5"
         offset="0"
         id="stop3678" />
      <stop
         style="stop-color:#b3b3b3;stop-opacity:0"
         offset="1"
         id="stop3680" />
    </linearGradient>
    <linearGradient
       id="linearGradient3236">
      <stop
         style="stop-color:#f4f4f4;stop-opacity:1"
         offset="0"
         id="stop3244" />
      <stop
         style="stop-color:#ffffff;stop-opacity:1"
         offset="1"
         id="stop3240" />
    </linearGradient>
    <linearGradient
       id="linearGradient4671">
      <stop
         style="stop-color:#ffd43b;stop-opacity:1"
         offset="0"
         id="stop4673" />
      <stop
         style="stop-color:#ffe873;stop-opacity:1"
         offset="1"
         id="stop4675" />
    </linearGradient>
    <linearGradient
       id="linearGradient4689">
      <stop
         style="stop-color:#5a9fd4;stop-opacity:1"
         offset="0"
         id="stop4691" />
      <stop
         style="stop-color:#306998;stop-opacity:1"
         offset="1"
         id="stop4693" />
    </linearGradient>
    <linearGradient
       x1="224.23996"
       y1="144.75717"
       x2="-65.308502"
       y2="144.75717"
       id="linearGradient2987"
       xlink:href="#linearGradient4671"
       gradientUnits="userSpaceOnUse"
       gradientTransform="translate(100.2702,99.61116)" />
    <linearGradient
       x1="172.94208"
       y1="77.475983"
       x2="26.670298"
       y2="76.313133"
       id="linearGradient2990"
       xlink:href="#linearGradient4689"
       gradientUnits="userSpaceOnUse"
       gradientTransform="translate(100.2702,99.61116)" />
    <linearGradient
       x1="172.94208"
       y1="77.475983"
       x2="26.670298"
       y2="76.313133"
       id="linearGradient2587"
       xlink:href="#linearGradient4689"
       gradientUnits="userSpaceOnUse"
       gradientTransform="translate(100.2702,99.61116)" />
    <linearGradient
       x1="224.23996"
       y1="144.75717"
       x2="-65.308502"
       y2="144.75717"
       id="linearGradient2589"
       xlink:href="#linearGradient4671"
       gradientUnits="userSpaceOnUse"
       gradientTransform="translate(100.2702,99.61116)" />
    <linearGradient
       x1="172.94208"
       y1="77.475983"
       x2="26.670298"
       y2="76.313133"
       id="linearGradient2248"
       xlink:href="#linearGradient4689"
       gradientUnits="userSpaceOnUse"
       gradientTransform="translate(100.2702,99.61116)" />
    <linearGradient
       x1="224.23996"
       y1="144.75717"
       x2="-65.308502"
       y2="144.75717"
       id="linearGradient2250"
       xlink:href="#linearGradient4671"
       gradientUnits="userSpaceOnUse"
       gradientTransform="translate(100.2702,99.61116)" />
    <linearGradient
       x1="224.23996"
       y1="144.75717"
       x2="-65.308502"
       y2="144.75717"
       id="linearGradient2255"
       xlink:href="#linearGradient4671"
       gradientUnits="userSpaceOnUse"
       gradientTransform="matrix(0.562541,0,0,0.567972,-11.5974,-7.60954)" />
    <linearGradient
       x1="172.94208"
       y1="76.176224"
       x2="26.670298"
       y2="76.313133"
       id="linearGradient2258"
       xlink:href="#linearGradient4689"
       gradientUnits="userSpaceOnUse"
       gradientTransform="matrix(0.562541,0,0,0.567972,-11.5974,-7.60954)" />
    <radialGradient
       cx="61.518883"
       cy="132.28575"
       r="29.036913"
       fx="61.518883"
       fy="132.28575"
       id="radialGradient2801"
       xlink:href="#linearGradient2795"
       gradientUnits="userSpaceOnUse"
       gradientTransform="matrix(1,0,0,0.177966,0,108.7434)" />
    <linearGradient
       x1="150.96111"
       y1="192.35176"
       x2="112.03144"
       y2="137.27299"
       id="linearGradient1475"
       xlink:href="#linearGradient4671"
       gradientUnits="userSpaceOnUse"
       gradientTransform="matrix(0.562541,0,0,0.567972,-9.399749,-5.305317)" />
    <linearGradient
       x1="26.648937"
       y1="20.603781"
       x2="135.66525"
       y2="114.39767"
       id="linearGradient1478"
       xlink:href="#linearGradient4689"
       gradientUnits="userSpaceOnUse"
       gradientTransform="matrix(0.562541,0,0,0.567972,-9.399749,-5.305317)" />
    <radialGradient
       cx="61.518883"
       cy="132.28575"
       r="29.036913"
       fx="61.518883"
       fy="132.28575"
       id="radialGradient1480"
       xlink:href="#linearGradient2795"
       gradientUnits="userSpaceOnUse"
       gradientTransform="matrix(2.382716e-8,-0.296405,1.43676,4.683673e-7,-128.544,150.5202)" />
  </defs>
  <g
     id="g2303"
     transform="translate(-5.5913706,-3.2616329)">
    <path
       id="path1948"
       style="fill:url(#linearGradient1478);fill-opacity:1"
       d="m 60.510156,6.3979729 c -4.583653,0.021298 -8.960939,0.4122177 -12.8125,1.09375 C 36.35144,9.4962267 34.291407,13.691825 34.291406,21.429223 v 10.21875 h 26.8125 v 3.40625 h -26.8125 -10.0625 c -7.792459,0 -14.6157592,4.683717 -16.7500002,13.59375 -2.46182,10.212966 -2.5710151,16.586023 0,27.25 1.9059283,7.937852 6.4575432,13.593748 14.2500002,13.59375 h 9.21875 v -12.25 c 0,-8.849902 7.657144,-16.656248 16.75,-16.65625 h 26.78125 c 7.454951,0 13.406253,-6.138164 13.40625,-13.625 v -25.53125 c 0,-7.266339 -6.12998,-12.7247775 -13.40625,-13.9375001 -4.605987,-0.7667253 -9.385097,-1.1150483 -13.96875,-1.09375 z m -14.5,8.2187501 c 2.769547,0 5.03125,2.298646 5.03125,5.125 -2e-6,2.816336 -2.261703,5.09375 -5.03125,5.09375 -2.779476,-1e-6 -5.03125,-2.277415 -5.03125,-5.09375 -1e-6,-2.826353 2.251774,-5.125 5.03125,-5.125 z" />
    <path
       id="path1950"
       style="fill:url(#linearGradient1475);fill-opacity:1"
       d="m 91.228906,35.054223 v 11.90625 c 0,9.230755 -7.825895,16.999999 -16.75,17 h -26.78125 c -7.335833,0 -13.406249,6.278483 -13.40625,13.625 v 25.531247 c 0,7.26634 6.318588,11.54032 13.40625,13.625 8.487331,2.49561 16.626237,2.94663 26.78125,0 6.750155,-1.95439 13.406253,-5.88761 13.40625,-13.625 V 92.897973 h -26.78125 v -3.40625 h 26.78125 13.406254 c 7.79246,0 10.69625,-5.435408 13.40624,-13.59375 2.79933,-8.398886 2.68022,-16.475776 0,-27.25 -1.92578,-7.757441 -5.60387,-13.59375 -13.40624,-13.59375 z m -15.0625,64.65625 c 2.779478,3e-6 5.03125,2.277417 5.03125,5.093747 -2e-6,2.82635 -2.251775,5.125 -5.03125,5.125 -2.76955,0 -5.03125,-2.29865 -5.03125,-5.125 2e-6,-2.81633 2.261697,-5.093747 5.03125,-5.093747 z" />
    <path
       id="path1894"
       style="opacity:0.44382;fill:url(#radialGradient1480);fill-opacity:1;fill-rule:nonzero;stroke:none;stroke-width:20;stroke-miterlimit:4;stroke-dasharray:none;stroke-opacity:1"
       transform="matrix(0.73406,0,0,0.809524,16.24958,27.00935)"
       d="m 110.46717,132.28575 a 48.948285,8.6066775 0 1 1 -97.896571,0 48.948285,8.6066775 0 1 1 97.896571,0 z" />
  </g>
  <path
     id="text250"
     style="font-size:120px;fill:#646464;fill-opacity:1"
     d="M 285.9043 0.025390625 C 271.86431 0.025390625 262.86328 7.8253306 262.86328 25.945312 L 262.86328 31.945312 L 257.22461 31.945312 L 257.22461 38.066406 L 262.86328 38.066406 L 262.86328 84.386719 L 271.625 84.386719 L 271.625 38.066406 L 283.74414 38.066406 L 283.74414 31.945312 L 271.625 31.945312 L 271.74414 25.345703 C 271.74414 16.225712 273.18478 3.3864871 289.38477 6.1464844 L 290.46484 6.5058594 L 292.38477 1.2265625 C 290.34477 0.50656322 288.54343 0.025390625 286.02344 0.025390625 L 285.9043 0.025390625 z M 406.74414 0.74609375 L 397.98438 3.7460938 L 397.98438 84.386719 L 406.74414 84.386719 L 406.74414 60.626953 L 411.66406 56.185547 L 430.02344 84.386719 L 440.34375 84.386719 L 418.26367 50.066406 L 435.66406 34.345703 L 431.34375 30.265625 L 406.74414 52.585938 L 406.74414 0.74609375 z M 168.30469 30.505859 C 150.54471 30.745859 143.70422 39.746094 143.82422 39.746094 L 143.70508 108.74609 L 152.34375 111.86523 L 152.34375 80.785156 C 157.26375 83.785153 162.3036 85.585938 168.18359 85.585938 C 182.58358 85.105938 189.30469 72.506393 189.30469 59.066406 C 189.18469 43.826421 182.70381 30.386953 168.42383 30.626953 L 168.30469 30.505859 z M 212.58398 30.505859 L 203.70508 33.505859 L 203.70508 69.986328 C 203.70508 79.706318 212.70501 85.345703 220.625 85.345703 C 230.94499 85.345703 236.82485 82.465624 239.46484 81.265625 C 239.58484 82.585624 239.46484 82.226876 239.46484 83.546875 C 239.46484 87.386871 239.34492 93.985706 237.54492 97.345703 C 233.94493 104.1857 224.34499 105.14547 217.625 106.10547 L 219.06445 111.62695 C 227.94444 111.38695 240.42329 108.02694 244.86328 99.626953 C 247.38328 94.826958 247.74414 85.586791 247.74414 79.466797 L 247.74414 31.826172 L 238.98438 31.826172 L 238.98438 74.666016 C 236.10438 76.586014 230.82453 79.225703 226.14453 79.345703 C 218.34454 79.465703 212.58398 75.266554 212.58398 67.226562 L 212.58398 30.505859 z M 302.22461 30.505859 L 293.22461 33.505859 L 293.22461 70.226562 C 293.22461 80.666552 302.34368 85.345703 310.26367 85.345703 C 320.58366 85.345703 329.10384 81.985073 336.42383 76.705078 L 336.42383 31.466797 L 327.66406 31.466797 L 327.66406 75.505859 C 324.78407 77.425857 320.46515 79.585078 315.78516 79.705078 C 308.10516 79.825078 302.22461 75.266554 302.22461 67.226562 L 302.22461 30.505859 z M 371.88477 30.521484 C 367.14477 30.416484 362.52523 31.585471 358.86523 34.105469 C 351.54524 39.145464 347.46484 48.865088 347.46484 58.705078 C 347.46484 71.905065 355.38423 85.346797 368.82422 85.466797 C 376.50421 85.466797 382.98454 83.305309 388.14453 79.945312 L 385.86523 75.386719 C 381.06524 77.666716 376.98374 79.705937 371.34375 79.585938 C 361.38376 79.465938 356.34375 68.185069 356.34375 58.705078 C 356.34375 48.745088 361.02392 36.866718 370.50391 36.386719 C 374.5839 36.146719 379.50352 37.585627 383.10352 39.265625 L 385.625 34.585938 C 381.485 32.00594 376.62476 30.626484 371.88477 30.521484 z M 165.48633 36.341797 C 165.93926 36.342383 166.39828 36.356719 166.86328 36.386719 C 177.78327 36.866718 179.22461 49.826806 179.22461 58.466797 C 179.22461 67.346788 177.78366 78.625704 166.26367 79.345703 C 160.86368 79.705703 155.10461 76.585154 152.22461 74.785156 L 152.22461 40.585938 C 153.34961 39.460939 158.69239 36.333008 165.48633 36.341797 z " />
</svg>
